<mxfile host="app.diagrams.net" agent="Mozilla/5.0 (Windows NT 10.0; Win64; x64) AppleWebKit/537.36 (KHTML, like Gecko) Chrome/127.0.0.0 Safari/537.36" version="24.7.7" pages="2">
  <diagram name="v1" id="uYP0cZZRxCGuu07ioi9S">
    <mxGraphModel dx="2875" dy="1148" grid="1" gridSize="10" guides="1" tooltips="1" connect="1" arrows="1" fold="1" page="1" pageScale="1" pageWidth="850" pageHeight="1100" math="0" shadow="0">
      <root>
        <mxCell id="0" />
        <mxCell id="1" parent="0" />
        <mxCell id="WmmOhZ6zJUImY-MDyulg-1" value="" style="rounded=1;whiteSpace=wrap;html=1;" parent="1" vertex="1">
          <mxGeometry x="117.5" y="30" width="1090" height="1440" as="geometry" />
        </mxCell>
        <mxCell id="WmmOhZ6zJUImY-MDyulg-2" value="" style="rounded=1;whiteSpace=wrap;html=1;fillColor=#f5f5f5;fontColor=#333333;strokeColor=#666666;" parent="1" vertex="1">
          <mxGeometry x="275" y="195" width="775" height="1095" as="geometry" />
        </mxCell>
        <mxCell id="WmmOhZ6zJUImY-MDyulg-3" value="&lt;font style=&quot;font-size: 32px;&quot;&gt;Weather App&lt;/font&gt;" style="text;html=1;align=center;verticalAlign=middle;whiteSpace=wrap;rounded=0;" parent="1" vertex="1">
          <mxGeometry x="397.5" y="130" width="530" height="230" as="geometry" />
        </mxCell>
        <mxCell id="WmmOhZ6zJUImY-MDyulg-4" value="&lt;font style=&quot;font-size: 24px;&quot;&gt;Enter location&lt;/font&gt;" style="html=1;shadow=0;dashed=0;shape=mxgraph.bootstrap.rrect;rSize=5;strokeColor=#CED4DA;strokeWidth=1;fillColor=#E9ECEF;fontColor=#505050;whiteSpace=wrap;align=left;verticalAlign=middle;spacingLeft=10;fontSize=14;" parent="1" vertex="1">
          <mxGeometry x="407.5" y="281.25" width="510" height="57.5" as="geometry" />
        </mxCell>
        <mxCell id="WmmOhZ6zJUImY-MDyulg-5" value="" style="shape=image;html=1;verticalAlign=top;verticalLabelPosition=bottom;labelBackgroundColor=#ffffff;imageAspect=0;aspect=fixed;image=https://cdn0.iconfinder.com/data/icons/google-material-design-3-0/48/ic_location_on_48px-128.png" parent="1" vertex="1">
          <mxGeometry x="347.5" y="285" width="50" height="50" as="geometry" />
        </mxCell>
        <mxCell id="WmmOhZ6zJUImY-MDyulg-6" value="" style="sketch=0;pointerEvents=1;shadow=0;dashed=0;html=1;strokeColor=none;fillColor=#505050;labelPosition=center;verticalLabelPosition=bottom;verticalAlign=top;outlineConnect=0;align=center;shape=mxgraph.office.concepts.search;" parent="1" vertex="1">
          <mxGeometry x="960" y="292.5" width="35" height="35" as="geometry" />
        </mxCell>
        <mxCell id="WmmOhZ6zJUImY-MDyulg-8" value="" style="shape=mxgraph.signs.nature.sun_4;html=1;pointerEvents=1;fillColor=#f0a30a;strokeColor=#BD7000;verticalLabelPosition=bottom;verticalAlign=top;align=center;fontColor=#000000;" parent="1" vertex="1">
          <mxGeometry x="562.5" y="410" width="200" height="170" as="geometry" />
        </mxCell>
        <mxCell id="WmmOhZ6zJUImY-MDyulg-9" value="&lt;font style=&quot;font-size: 32px;&quot;&gt;&lt;font style=&quot;font-size: 32px;&quot;&gt;22&amp;nbsp;&lt;/font&gt;&lt;span style=&quot;font-weight: 700; color: rgb(31, 31, 31); font-family: Arial, sans-serif; text-align: start; background-color: rgb(255, 255, 255);&quot; class=&quot;w8qArf FoJoyf&quot;&gt;&amp;nbsp;&lt;/span&gt;&lt;span style=&quot;color: rgb(31, 31, 31); font-family: Arial, sans-serif; text-align: start; background-color: rgb(255, 255, 255);&quot;&gt;&lt;span style=&quot;color: var(--bbQxAb); line-height: 22px;&quot; class=&quot;LrzXr kno-fv wHYlTd z8gr9e&quot;&gt;Â°C&lt;/span&gt;&lt;/span&gt;&lt;/font&gt;" style="text;html=1;align=center;verticalAlign=middle;whiteSpace=wrap;rounded=0;" parent="1" vertex="1">
          <mxGeometry x="597.5" y="550" width="130" height="140" as="geometry" />
        </mxCell>
        <mxCell id="WmmOhZ6zJUImY-MDyulg-10" value="&lt;font style=&quot;font-size: 32px;&quot;&gt;Sunny&lt;/font&gt;" style="text;html=1;align=center;verticalAlign=middle;whiteSpace=wrap;rounded=0;" parent="1" vertex="1">
          <mxGeometry x="590" y="590" width="130" height="140" as="geometry" />
        </mxCell>
        <mxCell id="WmmOhZ6zJUImY-MDyulg-11" value="&lt;font style=&quot;font-size: 32px;&quot;&gt;Biga, Canakkale, Turkey&lt;/font&gt;" style="text;html=1;align=center;verticalAlign=middle;whiteSpace=wrap;rounded=0;" parent="1" vertex="1">
          <mxGeometry x="482.5" y="660" width="360" height="140" as="geometry" />
        </mxCell>
        <mxCell id="WmmOhZ6zJUImY-MDyulg-12" value="&lt;font style=&quot;font-size: 32px;&quot;&gt;Date, Time&lt;/font&gt;" style="text;html=1;align=center;verticalAlign=middle;whiteSpace=wrap;rounded=0;" parent="1" vertex="1">
          <mxGeometry x="482.5" y="730" width="360" height="140" as="geometry" />
        </mxCell>
        <mxCell id="WmmOhZ6zJUImY-MDyulg-13" value="" style="shape=image;html=1;verticalAlign=top;verticalLabelPosition=bottom;labelBackgroundColor=#ffffff;imageAspect=0;aspect=fixed;image=https://cdn2.iconfinder.com/data/icons/weather-flat-icons-2/320/7-128.png" parent="1" vertex="1">
          <mxGeometry x="257.5" y="880" width="150" height="150" as="geometry" />
        </mxCell>
        <mxCell id="WmmOhZ6zJUImY-MDyulg-14" value="&lt;font style=&quot;font-size: 32px;&quot;&gt;42%&lt;/font&gt;&lt;div&gt;&lt;font style=&quot;font-size: 32px;&quot;&gt;Humidity&lt;/font&gt;&lt;/div&gt;" style="text;html=1;align=center;verticalAlign=middle;whiteSpace=wrap;rounded=0;" parent="1" vertex="1">
          <mxGeometry x="257.5" y="885" width="360" height="140" as="geometry" />
        </mxCell>
        <mxCell id="WmmOhZ6zJUImY-MDyulg-15" value="" style="shape=image;html=1;verticalAlign=top;verticalLabelPosition=bottom;labelBackgroundColor=#ffffff;imageAspect=0;aspect=fixed;image=https://cdn0.iconfinder.com/data/icons/green-world/80/Green_World-07-128.png" parent="1" vertex="1">
          <mxGeometry x="750" y="895.5" width="119" height="119" as="geometry" />
        </mxCell>
        <mxCell id="WmmOhZ6zJUImY-MDyulg-16" value="&lt;span style=&quot;font-size: 32px;&quot;&gt;56 km/h&lt;/span&gt;&lt;br&gt;&lt;div&gt;&lt;span style=&quot;font-size: 32px;&quot;&gt;Wind Speed&lt;/span&gt;&lt;/div&gt;" style="text;html=1;align=center;verticalAlign=middle;whiteSpace=wrap;rounded=0;" parent="1" vertex="1">
          <mxGeometry x="770" y="890" width="360" height="140" as="geometry" />
        </mxCell>
      </root>
    </mxGraphModel>
  </diagram>
  <diagram name="v2" id="Y_0GB3qbegeKkxcUqZGS">
    <mxGraphModel dx="1820" dy="918" grid="1" gridSize="10" guides="1" tooltips="1" connect="1" arrows="1" fold="1" page="1" pageScale="1" pageWidth="850" pageHeight="1100" math="0" shadow="0">
      <root>
        <mxCell id="3azqIceYjQs5xUaNUvja-0" />
        <mxCell id="3azqIceYjQs5xUaNUvja-1" parent="3azqIceYjQs5xUaNUvja-0" />
        <mxCell id="3azqIceYjQs5xUaNUvja-2" value="" style="rounded=1;whiteSpace=wrap;html=1;" vertex="1" parent="3azqIceYjQs5xUaNUvja-1">
          <mxGeometry x="117.5" y="30" width="1090" height="1600" as="geometry" />
        </mxCell>
        <mxCell id="3azqIceYjQs5xUaNUvja-3" value="" style="rounded=1;whiteSpace=wrap;html=1;fillColor=#f5f5f5;fontColor=#333333;strokeColor=#666666;" vertex="1" parent="3azqIceYjQs5xUaNUvja-1">
          <mxGeometry x="275" y="130" width="775" height="1460" as="geometry" />
        </mxCell>
        <mxCell id="3azqIceYjQs5xUaNUvja-4" value="&lt;font style=&quot;font-size: 32px;&quot;&gt;Weather App&lt;/font&gt;" style="text;html=1;align=center;verticalAlign=middle;whiteSpace=wrap;rounded=0;" vertex="1" parent="3azqIceYjQs5xUaNUvja-1">
          <mxGeometry x="397.5" y="51.25" width="530" height="230" as="geometry" />
        </mxCell>
        <mxCell id="3azqIceYjQs5xUaNUvja-5" value="&lt;font style=&quot;font-size: 24px;&quot;&gt;Enter location&lt;/font&gt;" style="html=1;shadow=0;dashed=0;shape=mxgraph.bootstrap.rrect;rSize=5;strokeColor=#CED4DA;strokeWidth=1;fillColor=#E9ECEF;fontColor=#505050;whiteSpace=wrap;align=left;verticalAlign=middle;spacingLeft=10;fontSize=14;" vertex="1" parent="3azqIceYjQs5xUaNUvja-1">
          <mxGeometry x="407.5" y="281.25" width="510" height="57.5" as="geometry" />
        </mxCell>
        <mxCell id="3azqIceYjQs5xUaNUvja-6" value="" style="shape=image;html=1;verticalAlign=top;verticalLabelPosition=bottom;labelBackgroundColor=#ffffff;imageAspect=0;aspect=fixed;image=https://cdn0.iconfinder.com/data/icons/google-material-design-3-0/48/ic_location_on_48px-128.png" vertex="1" parent="3azqIceYjQs5xUaNUvja-1">
          <mxGeometry x="347.5" y="285" width="50" height="50" as="geometry" />
        </mxCell>
        <mxCell id="3azqIceYjQs5xUaNUvja-7" value="" style="sketch=0;pointerEvents=1;shadow=0;dashed=0;html=1;strokeColor=none;fillColor=#505050;labelPosition=center;verticalLabelPosition=bottom;verticalAlign=top;outlineConnect=0;align=center;shape=mxgraph.office.concepts.search;" vertex="1" parent="3azqIceYjQs5xUaNUvja-1">
          <mxGeometry x="960" y="292.5" width="35" height="35" as="geometry" />
        </mxCell>
        <mxCell id="3azqIceYjQs5xUaNUvja-8" value="" style="shape=mxgraph.signs.nature.sun_4;html=1;pointerEvents=1;fillColor=#f0a30a;strokeColor=#BD7000;verticalLabelPosition=bottom;verticalAlign=top;align=center;fontColor=#000000;" vertex="1" parent="3azqIceYjQs5xUaNUvja-1">
          <mxGeometry x="397.5" y="430" width="222.5" height="220" as="geometry" />
        </mxCell>
        <mxCell id="3azqIceYjQs5xUaNUvja-9" value="&lt;font style=&quot;font-size: 48px;&quot;&gt;&lt;font style=&quot;font-size: 48px;&quot;&gt;22&amp;nbsp;&lt;/font&gt;&lt;span style=&quot;font-weight: 700; color: rgb(31, 31, 31); font-family: Arial, sans-serif; text-align: start; background-color: rgb(255, 255, 255);&quot; class=&quot;w8qArf FoJoyf&quot;&gt;&amp;nbsp;&lt;/span&gt;&lt;span style=&quot;color: rgb(31, 31, 31); font-family: Arial, sans-serif; text-align: start; background-color: rgb(255, 255, 255);&quot;&gt;&lt;span style=&quot;color: var(--bbQxAb); line-height: 22px;&quot; class=&quot;LrzXr kno-fv wHYlTd z8gr9e&quot;&gt;Â°C&lt;/span&gt;&lt;/span&gt;&lt;/font&gt;" style="text;html=1;align=center;verticalAlign=middle;whiteSpace=wrap;rounded=0;" vertex="1" parent="3azqIceYjQs5xUaNUvja-1">
          <mxGeometry x="690" y="400" width="130" height="110" as="geometry" />
        </mxCell>
        <mxCell id="3azqIceYjQs5xUaNUvja-11" value="&lt;font style=&quot;font-size: 32px;&quot;&gt;Biga, Canakkale, Turkey&lt;/font&gt;" style="text;html=1;align=center;verticalAlign=middle;whiteSpace=wrap;rounded=0;" vertex="1" parent="3azqIceYjQs5xUaNUvja-1">
          <mxGeometry x="482.5" y="697.5" width="360" height="90" as="geometry" />
        </mxCell>
        <mxCell id="3azqIceYjQs5xUaNUvja-12" value="&lt;font style=&quot;font-size: 32px;&quot;&gt;Date, Time&lt;/font&gt;" style="text;html=1;align=center;verticalAlign=middle;whiteSpace=wrap;rounded=0;" vertex="1" parent="3azqIceYjQs5xUaNUvja-1">
          <mxGeometry x="482.5" y="787.5" width="360" height="70" as="geometry" />
        </mxCell>
        <mxCell id="3azqIceYjQs5xUaNUvja-13" value="" style="shape=image;html=1;verticalAlign=top;verticalLabelPosition=bottom;labelBackgroundColor=#ffffff;imageAspect=0;aspect=fixed;image=https://cdn2.iconfinder.com/data/icons/weather-flat-icons-2/320/7-128.png" vertex="1" parent="3azqIceYjQs5xUaNUvja-1">
          <mxGeometry x="240" y="890" width="195" height="195" as="geometry" />
        </mxCell>
        <mxCell id="3azqIceYjQs5xUaNUvja-14" value="&lt;font style=&quot;font-size: 24px;&quot;&gt;42%&lt;/font&gt;&lt;div style=&quot;font-size: 24px;&quot;&gt;&lt;font style=&quot;font-size: 24px;&quot;&gt;Humidity&lt;/font&gt;&lt;/div&gt;" style="text;html=1;align=center;verticalAlign=middle;whiteSpace=wrap;rounded=0;" vertex="1" parent="3azqIceYjQs5xUaNUvja-1">
          <mxGeometry x="370" y="917.5" width="165" height="140" as="geometry" />
        </mxCell>
        <mxCell id="3azqIceYjQs5xUaNUvja-15" value="" style="shape=image;html=1;verticalAlign=top;verticalLabelPosition=bottom;labelBackgroundColor=#ffffff;imageAspect=0;aspect=fixed;image=https://cdn0.iconfinder.com/data/icons/green-world/80/Green_World-07-128.png" vertex="1" parent="3azqIceYjQs5xUaNUvja-1">
          <mxGeometry x="798.5" y="928" width="119" height="119" as="geometry" />
        </mxCell>
        <mxCell id="3azqIceYjQs5xUaNUvja-16" value="&lt;font style=&quot;font-size: 24px;&quot;&gt;56 km/h&lt;/font&gt;&lt;div style=&quot;font-size: 24px;&quot;&gt;&lt;font style=&quot;font-size: 24px;&quot;&gt;North&lt;br&gt;&lt;/font&gt;&lt;div&gt;&lt;font style=&quot;font-size: 24px;&quot;&gt;Wind Speed&lt;/font&gt;&lt;/div&gt;&lt;/div&gt;" style="text;html=1;align=center;verticalAlign=middle;whiteSpace=wrap;rounded=0;" vertex="1" parent="3azqIceYjQs5xUaNUvja-1">
          <mxGeometry x="860" y="928" width="260" height="140" as="geometry" />
        </mxCell>
        <mxCell id="piHPnDB6rxEiSaSsRvl--0" value="&lt;font style=&quot;font-size: 48px;&quot;&gt;Sunny&lt;/font&gt;" style="text;html=1;align=center;verticalAlign=middle;whiteSpace=wrap;rounded=0;" vertex="1" parent="3azqIceYjQs5xUaNUvja-1">
          <mxGeometry x="700" y="570" width="130" height="90" as="geometry" />
        </mxCell>
        <mxCell id="piHPnDB6rxEiSaSsRvl--2" value="&lt;font style=&quot;font-size: 32px;&quot;&gt;&lt;font style=&quot;font-size: 32px;&quot;&gt;Feels like&amp;nbsp;&lt;/font&gt;&lt;font style=&quot;font-size: 32px;&quot;&gt;24&amp;nbsp;&lt;/font&gt;&lt;span style=&quot;font-weight: 700; color: rgb(31, 31, 31); font-family: Arial, sans-serif; text-align: start; background-color: rgb(255, 255, 255);&quot; class=&quot;w8qArf FoJoyf&quot;&gt;&amp;nbsp;&lt;/span&gt;&lt;span style=&quot;color: rgb(31, 31, 31); font-family: Arial, sans-serif; text-align: start; background-color: rgb(255, 255, 255);&quot;&gt;&lt;span style=&quot;color: var(--bbQxAb); line-height: 22px;&quot; class=&quot;LrzXr kno-fv wHYlTd z8gr9e&quot;&gt;Â°C&lt;/span&gt;&lt;/span&gt;&lt;/font&gt;" style="text;html=1;align=center;verticalAlign=middle;whiteSpace=wrap;rounded=0;" vertex="1" parent="3azqIceYjQs5xUaNUvja-1">
          <mxGeometry x="620" y="450" width="360" height="140" as="geometry" />
        </mxCell>
        <mxCell id="piHPnDB6rxEiSaSsRvl--4" value="&lt;font style=&quot;font-size: 24px;&quot;&gt;Last updated at datetime&lt;/font&gt;" style="text;html=1;align=center;verticalAlign=middle;whiteSpace=wrap;rounded=0;" vertex="1" parent="3azqIceYjQs5xUaNUvja-1">
          <mxGeometry x="482.5" y="330" width="360" height="70" as="geometry" />
        </mxCell>
        <mxCell id="piHPnDB6rxEiSaSsRvl--5" value="" style="sketch=0;outlineConnect=0;fontColor=#232F3E;gradientColor=none;fillColor=#7AA116;strokeColor=none;dashed=0;verticalLabelPosition=bottom;verticalAlign=top;align=center;html=1;fontSize=12;fontStyle=0;aspect=fixed;pointerEvents=1;shape=mxgraph.aws4.iot_over_the_air_update;" vertex="1" parent="3azqIceYjQs5xUaNUvja-1">
          <mxGeometry x="535" y="928" width="123.81" height="100" as="geometry" />
        </mxCell>
        <mxCell id="piHPnDB6rxEiSaSsRvl--6" value="" style="shape=image;html=1;verticalAlign=top;verticalLabelPosition=bottom;labelBackgroundColor=#ffffff;imageAspect=0;aspect=fixed;image=https://cdn2.iconfinder.com/data/icons/arrow-part-1-2/32/Arrow_02_arrow-direction-north-ui-navigation_icon-128.png" vertex="1" parent="3azqIceYjQs5xUaNUvja-1">
          <mxGeometry x="927.5" y="978" width="40" height="40" as="geometry" />
        </mxCell>
        <mxCell id="piHPnDB6rxEiSaSsRvl--10" value="&lt;span style=&quot;font-size: 24px;&quot;&gt;co 230.3&lt;/span&gt;&lt;div&gt;&lt;span style=&quot;font-size: 24px;&quot;&gt;no2: 25.7&lt;/span&gt;&lt;/div&gt;&lt;div&gt;&lt;span style=&quot;font-size: 24px;&quot;&gt;o3: 19.5&lt;/span&gt;&lt;/div&gt;&lt;div&gt;&lt;span style=&quot;font-size: 24px;&quot;&gt;so2: 9.3&lt;/span&gt;&lt;/div&gt;&lt;div&gt;&lt;span style=&quot;font-size: 24px;&quot;&gt;Good&lt;/span&gt;&lt;/div&gt;" style="text;html=1;align=center;verticalAlign=middle;whiteSpace=wrap;rounded=0;" vertex="1" parent="3azqIceYjQs5xUaNUvja-1">
          <mxGeometry x="650" y="917.5" width="165" height="140" as="geometry" />
        </mxCell>
        <mxCell id="piHPnDB6rxEiSaSsRvl--12" value="&lt;font style=&quot;font-size: 24px;&quot;&gt;Forecast&lt;/font&gt;" style="text;html=1;align=center;verticalAlign=middle;whiteSpace=wrap;rounded=0;" vertex="1" parent="3azqIceYjQs5xUaNUvja-1">
          <mxGeometry x="762.25" y="170" width="142.5" height="70" as="geometry" />
        </mxCell>
        <mxCell id="piHPnDB6rxEiSaSsRvl--13" value="&lt;span style=&quot;font-size: 24px;&quot;&gt;Hourly&lt;/span&gt;" style="text;html=1;align=center;verticalAlign=middle;whiteSpace=wrap;rounded=0;" vertex="1" parent="3azqIceYjQs5xUaNUvja-1">
          <mxGeometry x="672.5" y="206.25" width="142.5" height="70" as="geometry" />
        </mxCell>
        <mxCell id="piHPnDB6rxEiSaSsRvl--14" value="&lt;span style=&quot;font-size: 24px;&quot;&gt;Daily&lt;/span&gt;" style="text;html=1;align=center;verticalAlign=middle;whiteSpace=wrap;rounded=0;" vertex="1" parent="3azqIceYjQs5xUaNUvja-1">
          <mxGeometry x="837.5" y="206.25" width="142.5" height="70" as="geometry" />
        </mxCell>
        <mxCell id="piHPnDB6rxEiSaSsRvl--16" value="" style="shape=image;html=1;verticalAlign=top;verticalLabelPosition=bottom;labelBackgroundColor=#ffffff;imageAspect=0;aspect=fixed;image=https://cdn0.iconfinder.com/data/icons/phosphor-duotone-vol-3/256/toggle-left-duotone-128.png" vertex="1" parent="3azqIceYjQs5xUaNUvja-1">
          <mxGeometry x="793.5" y="206.25" width="80" height="80" as="geometry" />
        </mxCell>
        <mxCell id="piHPnDB6rxEiSaSsRvl--18" value="&lt;div style=&quot;font-size: 24px;&quot;&gt;&lt;br&gt;&lt;/div&gt;" style="text;html=1;align=center;verticalAlign=middle;whiteSpace=wrap;rounded=0;fillColor=none;strokeColor=default;" vertex="1" parent="3azqIceYjQs5xUaNUvja-1">
          <mxGeometry x="292.5" y="1130" width="247.5" height="360" as="geometry" />
        </mxCell>
        <mxCell id="piHPnDB6rxEiSaSsRvl--19" value="" style="shape=mxgraph.signs.nature.sun_4;html=1;pointerEvents=1;fillColor=#f0a30a;strokeColor=#BD7000;verticalLabelPosition=bottom;verticalAlign=top;align=center;fontColor=#000000;" vertex="1" parent="3azqIceYjQs5xUaNUvja-1">
          <mxGeometry x="310" y="1195" width="72.5" height="70" as="geometry" />
        </mxCell>
        <mxCell id="piHPnDB6rxEiSaSsRvl--24" value="&lt;font style=&quot;font-size: 24px;&quot;&gt;&lt;font style=&quot;font-size: 24px;&quot;&gt;15&lt;/font&gt;&lt;font style=&quot;font-size: 24px;&quot;&gt;&amp;nbsp;&lt;/font&gt;&lt;span style=&quot;font-weight: 700; color: rgb(31, 31, 31); font-family: Arial, sans-serif; text-align: start; background-color: rgb(255, 255, 255);&quot; class=&quot;w8qArf FoJoyf&quot;&gt;&amp;nbsp;&lt;/span&gt;&lt;span style=&quot;color: rgb(31, 31, 31); font-family: Arial, sans-serif; text-align: start; background-color: rgb(255, 255, 255);&quot;&gt;&lt;span style=&quot;color: var(--bbQxAb); line-height: 22px;&quot; class=&quot;LrzXr kno-fv wHYlTd z8gr9e&quot;&gt;Â°C&lt;/span&gt;&lt;/span&gt;&lt;/font&gt;&lt;div&gt;&lt;font style=&quot;font-size: 24px;&quot;&gt;&lt;span style=&quot;color: rgb(31, 31, 31); font-family: Arial, sans-serif; text-align: start; background-color: rgb(255, 255, 255);&quot;&gt;&lt;span style=&quot;color: var(--bbQxAb); line-height: 22px;&quot; class=&quot;LrzXr kno-fv wHYlTd z8gr9e&quot;&gt;Sunny&lt;/span&gt;&lt;/span&gt;&lt;/font&gt;&lt;/div&gt;" style="text;html=1;align=center;verticalAlign=middle;whiteSpace=wrap;rounded=0;" vertex="1" parent="3azqIceYjQs5xUaNUvja-1">
          <mxGeometry x="390" y="1180" width="110" height="100" as="geometry" />
        </mxCell>
        <mxCell id="piHPnDB6rxEiSaSsRvl--25" value="" style="shape=image;html=1;verticalAlign=top;verticalLabelPosition=bottom;labelBackgroundColor=#ffffff;imageAspect=0;aspect=fixed;image=https://cdn2.iconfinder.com/data/icons/weather-flat-icons-2/320/7-128.png" vertex="1" parent="3azqIceYjQs5xUaNUvja-1">
          <mxGeometry x="301.25" y="1280" width="90" height="90" as="geometry" />
        </mxCell>
        <mxCell id="piHPnDB6rxEiSaSsRvl--26" value="&lt;font style=&quot;font-size: 24px;&quot;&gt;42%&lt;/font&gt;" style="text;html=1;align=center;verticalAlign=middle;whiteSpace=wrap;rounded=0;" vertex="1" parent="3azqIceYjQs5xUaNUvja-1">
          <mxGeometry x="362.5" y="1280" width="165" height="92" as="geometry" />
        </mxCell>
        <mxCell id="piHPnDB6rxEiSaSsRvl--27" value="&lt;font style=&quot;font-size: 24px;&quot;&gt;56 km/h&lt;/font&gt;&lt;div style=&quot;font-size: 24px;&quot;&gt;&lt;font style=&quot;font-size: 24px;&quot;&gt;North&lt;/font&gt;&lt;/div&gt;" style="text;html=1;align=center;verticalAlign=middle;whiteSpace=wrap;rounded=0;" vertex="1" parent="3azqIceYjQs5xUaNUvja-1">
          <mxGeometry x="370" y="1380" width="160" height="80" as="geometry" />
        </mxCell>
        <mxCell id="piHPnDB6rxEiSaSsRvl--28" value="" style="shape=image;html=1;verticalAlign=top;verticalLabelPosition=bottom;labelBackgroundColor=#ffffff;imageAspect=0;aspect=fixed;image=https://cdn0.iconfinder.com/data/icons/green-world/80/Green_World-07-128.png" vertex="1" parent="3azqIceYjQs5xUaNUvja-1">
          <mxGeometry x="310" y="1380" width="78" height="78" as="geometry" />
        </mxCell>
        <mxCell id="piHPnDB6rxEiSaSsRvl--30" value="&lt;font style=&quot;font-size: 24px;&quot;&gt;14:00&lt;/font&gt;" style="text;html=1;align=center;verticalAlign=middle;whiteSpace=wrap;rounded=0;" vertex="1" parent="3azqIceYjQs5xUaNUvja-1">
          <mxGeometry x="351.25" y="1120" width="130" height="90" as="geometry" />
        </mxCell>
        <mxCell id="piHPnDB6rxEiSaSsRvl--31" value="" style="shape=image;html=1;verticalAlign=top;verticalLabelPosition=bottom;labelBackgroundColor=#ffffff;imageAspect=0;aspect=fixed;image=https://cdn2.iconfinder.com/data/icons/arrow-part-1-2/32/Arrow_02_arrow-direction-north-ui-navigation_icon-128.png" vertex="1" parent="3azqIceYjQs5xUaNUvja-1">
          <mxGeometry x="395" y="1420" width="30" height="30" as="geometry" />
        </mxCell>
        <mxCell id="piHPnDB6rxEiSaSsRvl--33" value="&lt;div style=&quot;font-size: 24px;&quot;&gt;&lt;br&gt;&lt;/div&gt;" style="text;html=1;align=center;verticalAlign=middle;whiteSpace=wrap;rounded=0;fillColor=none;strokeColor=default;" vertex="1" parent="3azqIceYjQs5xUaNUvja-1">
          <mxGeometry x="641.25" y="1130" width="348.75" height="360" as="geometry" />
        </mxCell>
        <mxCell id="piHPnDB6rxEiSaSsRvl--34" value="" style="shape=mxgraph.signs.nature.sun_4;html=1;pointerEvents=1;fillColor=#f0a30a;strokeColor=#BD7000;verticalLabelPosition=bottom;verticalAlign=top;align=center;fontColor=#000000;" vertex="1" parent="3azqIceYjQs5xUaNUvja-1">
          <mxGeometry x="672.5" y="1195" width="72.5" height="70" as="geometry" />
        </mxCell>
        <mxCell id="piHPnDB6rxEiSaSsRvl--35" value="&lt;font style=&quot;&quot;&gt;&lt;font style=&quot;font-size: 18px;&quot;&gt;Avg:&lt;/font&gt;&lt;font style=&quot;font-size: 24px;&quot;&gt; 15&lt;/font&gt;&lt;font style=&quot;font-size: 24px;&quot;&gt;&amp;nbsp;&lt;/font&gt;&lt;span style=&quot;font-size: 24px; font-weight: 700; color: rgb(31, 31, 31); font-family: Arial, sans-serif; text-align: start; background-color: rgb(255, 255, 255);&quot; class=&quot;w8qArf FoJoyf&quot;&gt;&amp;nbsp;&lt;/span&gt;&lt;span style=&quot;font-size: 24px; color: rgb(31, 31, 31); font-family: Arial, sans-serif; text-align: start; background-color: rgb(255, 255, 255);&quot;&gt;&lt;span style=&quot;color: var(--bbQxAb); line-height: 22px;&quot; class=&quot;LrzXr kno-fv wHYlTd z8gr9e&quot;&gt;Â°C&lt;/span&gt;&lt;/span&gt;&lt;/font&gt;&lt;div style=&quot;&quot;&gt;&lt;div style=&quot;font-size: 18px; text-align: start;&quot;&gt;&lt;font style=&quot;font-size: 18px; text-align: center;&quot;&gt;Min: 13&lt;/font&gt;&lt;font style=&quot;font-size: 18px; text-align: center;&quot;&gt;&amp;nbsp;&lt;/font&gt;&lt;span style=&quot;font-weight: 700; color: rgb(31, 31, 31); font-family: Arial, sans-serif; background-color: rgb(255, 255, 255);&quot; class=&quot;w8qArf FoJoyf&quot;&gt;&amp;nbsp;&lt;/span&gt;&lt;span style=&quot;color: rgb(31, 31, 31); font-family: Arial, sans-serif; background-color: rgb(255, 255, 255);&quot;&gt;&lt;span style=&quot;color: var(--bbQxAb); line-height: 22px;&quot; class=&quot;LrzXr kno-fv wHYlTd z8gr9e&quot;&gt;Â°C&amp;nbsp;&lt;/span&gt;&lt;/span&gt;&lt;font style=&quot;background-color: initial; font-size: 18px; text-align: center;&quot;&gt;Max: 20&lt;/font&gt;&lt;font style=&quot;background-color: initial; font-size: 18px; text-align: center;&quot;&gt;&amp;nbsp;&lt;/font&gt;&lt;span style=&quot;font-weight: 700; color: rgb(31, 31, 31); font-family: Arial, sans-serif; background-color: rgb(255, 255, 255);&quot; class=&quot;w8qArf FoJoyf&quot;&gt;&amp;nbsp;&lt;/span&gt;&lt;span style=&quot;color: rgb(31, 31, 31); font-family: Arial, sans-serif; background-color: rgb(255, 255, 255);&quot;&gt;&lt;span style=&quot;color: var(--bbQxAb); line-height: 22px;&quot; class=&quot;LrzXr kno-fv wHYlTd z8gr9e&quot;&gt;Â°C&lt;/span&gt;&lt;/span&gt;&lt;/div&gt;&lt;div style=&quot;&quot;&gt;&lt;font size=&quot;1&quot; style=&quot;&quot;&gt;&lt;span style=&quot;color: rgb(31, 31, 31); font-family: Arial, sans-serif; text-align: start; background-color: rgb(255, 255, 255);&quot;&gt;&lt;span style=&quot;color: var(--bbQxAb); line-height: 22px; font-size: 24px;&quot; class=&quot;LrzXr kno-fv wHYlTd z8gr9e&quot;&gt;Sunny&lt;/span&gt;&lt;/span&gt;&lt;/font&gt;&lt;/div&gt;&lt;/div&gt;" style="text;html=1;align=center;verticalAlign=middle;whiteSpace=wrap;rounded=0;" vertex="1" parent="3azqIceYjQs5xUaNUvja-1">
          <mxGeometry x="730" y="1165" width="265" height="130" as="geometry" />
        </mxCell>
        <mxCell id="piHPnDB6rxEiSaSsRvl--36" value="" style="shape=image;html=1;verticalAlign=top;verticalLabelPosition=bottom;labelBackgroundColor=#ffffff;imageAspect=0;aspect=fixed;image=https://cdn2.iconfinder.com/data/icons/weather-flat-icons-2/320/7-128.png" vertex="1" parent="3azqIceYjQs5xUaNUvja-1">
          <mxGeometry x="658.81" y="1282" width="90" height="90" as="geometry" />
        </mxCell>
        <mxCell id="piHPnDB6rxEiSaSsRvl--37" value="&lt;font style=&quot;font-size: 18px;&quot;&gt;Avg:&lt;/font&gt;&lt;font style=&quot;font-size: 24px;&quot;&gt; 42%&lt;/font&gt;" style="text;html=1;align=center;verticalAlign=middle;whiteSpace=wrap;rounded=0;" vertex="1" parent="3azqIceYjQs5xUaNUvja-1">
          <mxGeometry x="775.5" y="1278" width="165" height="92" as="geometry" />
        </mxCell>
        <mxCell id="piHPnDB6rxEiSaSsRvl--38" value="" style="shape=image;html=1;verticalAlign=top;verticalLabelPosition=bottom;labelBackgroundColor=#ffffff;imageAspect=0;aspect=fixed;image=https://cdn0.iconfinder.com/data/icons/green-world/80/Green_World-07-128.png" vertex="1" parent="3azqIceYjQs5xUaNUvja-1">
          <mxGeometry x="667" y="1390" width="78" height="78" as="geometry" />
        </mxCell>
        <mxCell id="piHPnDB6rxEiSaSsRvl--39" value="&lt;font style=&quot;font-size: 18px;&quot;&gt;Max:&lt;/font&gt;&lt;font style=&quot;font-size: 24px;&quot;&gt; 56 km/h&lt;/font&gt;&lt;div style=&quot;font-size: 24px;&quot;&gt;&lt;font style=&quot;font-size: 24px;&quot;&gt;North&lt;/font&gt;&lt;/div&gt;" style="text;html=1;align=center;verticalAlign=middle;whiteSpace=wrap;rounded=0;" vertex="1" parent="3azqIceYjQs5xUaNUvja-1">
          <mxGeometry x="775.5" y="1388" width="160" height="80" as="geometry" />
        </mxCell>
        <mxCell id="piHPnDB6rxEiSaSsRvl--40" value="" style="shape=image;html=1;verticalAlign=top;verticalLabelPosition=bottom;labelBackgroundColor=#ffffff;imageAspect=0;aspect=fixed;image=https://cdn2.iconfinder.com/data/icons/arrow-part-1-2/32/Arrow_02_arrow-direction-north-ui-navigation_icon-128.png" vertex="1" parent="3azqIceYjQs5xUaNUvja-1">
          <mxGeometry x="790" y="1430" width="30" height="30" as="geometry" />
        </mxCell>
        <mxCell id="piHPnDB6rxEiSaSsRvl--41" value="&lt;font style=&quot;font-size: 24px;&quot;&gt;2024-08-16&lt;/font&gt;" style="text;html=1;align=center;verticalAlign=middle;whiteSpace=wrap;rounded=0;" vertex="1" parent="3azqIceYjQs5xUaNUvja-1">
          <mxGeometry x="762.25" y="1120" width="130" height="90" as="geometry" />
        </mxCell>
      </root>
    </mxGraphModel>
  </diagram>
</mxfile>
